<svg width="32" height="32" viewBox="0 0 32 32" fill="none" xmlns="http://www.w3.org/2000/svg">
<path d="M16 32C24.8366 32 32 24.8366 32 16C32 7.16344 24.8366 0 16 0C7.16344 0 0 7.16344 0 16C0 24.8366 7.16344 32 16 32Z" fill="#F4B6C7"/>
<path d="M8.31055 11.1796L12.1849 15.0539H15.0536V12.1851L11.1793 8.31079H8.31055V11.1796Z" fill="#1A1B2A"/>
<path d="M16.9463 19.8151L20.8502 23.7189H23.7189V20.8502L19.8151 16.9463H16.9463V19.8151Z" fill="#1A1B2A"/>
<path d="M20.8502 8.31055L16.9463 12.1849V15.0536H19.8151L23.7189 11.1793V8.31055H20.8502Z" fill="#1A1B2A"/>
<path d="M12.1849 16.9463L8.31055 20.8502V23.7189H11.1793L15.0536 19.8151V16.9463H12.1849Z" fill="#1A1B2A"/>
</svg>
