<?xml version="1.0" encoding="UTF-8"?>
<!DOCTYPE svg PUBLIC "-//W3C//DTD SVG 1.1//EN" "http://www.w3.org/Graphics/SVG/1.1/DTD/svg11.dtd">
<!-- Creator: CorelDRAW X7 -->
<svg xmlns="http://www.w3.org/2000/svg" xml:space="preserve" width="7.5in" height="7.5in" version="1.1" style="shape-rendering:geometricPrecision; text-rendering:geometricPrecision; image-rendering:optimizeQuality; fill-rule:evenodd; clip-rule:evenodd"
viewBox="0 0 7500 7500"
 xmlns:xlink="http://www.w3.org/1999/xlink">
 <defs>
  <style type="text/css">
   <![CDATA[
    .fil0 {fill:none}
    .fil1 {fill:#BB96FF}
    .fil2 {fill:#FEFEFE;fill-rule:nonzero}
   ]]>
  </style>
 </defs>
 <g id="Layer_x0020_1">
  <metadata id="CorelCorpID_0Corel-Layer"/>
  <rect class="fil0" width="7500" height="7500"/>
  <circle class="fil1" cx="3750" cy="3750" r="3100"/>
  <g>
   <path class="fil2" d="M2843 1804c510,-236 1064,-258 1562,-104 502,155 947,491 1231,968l38 64 0 0 -904 1969c60,53 110,118 145,195l0 0 0 0c68,146 69,306 18,446 -52,140 -157,260 -303,328l0 0c-146,67 -306,69 -446,17 -140,-51 -260,-156 -328,-302l0 0c-34,-75 -52,-153 -53,-230l-2126 -702 0 0c-167,-521 -128,-1070 82,-1546 207,-471 580,-871 1084,-1103zm1239 2838l-552 -1197 0 0c-23,-49 -89,-76 -176,-82 -102,-6 -229,20 -355,78 -125,57 -225,136 -285,217 -52,69 -72,137 -50,187 4,7 8,14 13,20l1 0c5,7 12,14 19,19l1254 867c38,-42 82,-79 131,-109zm-431 -1253l552 1197c52,-17 105,-26 158,-29l151 -1510c1,-9 0,-17 -1,-26 -1,-8 -4,-17 -8,-25l0 0c-23,-50 -87,-78 -174,-84 -100,-6 -225,19 -350,76l0 1c-125,57 -223,135 -282,215 -50,68 -69,135 -46,185zm993 -322l-150 1500c32,6 63,15 93,26 25,9 49,20 72,32l860 -1873 -8 -18c-23,-50 -88,-78 -174,-84 -101,-6 -226,19 -351,76l0 0c-98,46 -180,104 -241,166 -57,60 -94,121 -101,175l0 0zm-2023 926c-47,-27 -116,-37 -197,-31 -85,6 -181,31 -277,75 -115,53 -209,124 -270,198 -35,42 -58,83 -68,121l2006 663c6,-28 14,-54 23,-80 11,-28 23,-54 37,-80l-1254 -866zm1576 739l0 0 0 0c-113,52 -194,145 -234,253 -39,108 -38,231 14,344l0 0c52,113 145,194 253,233 108,40 231,39 344,-13l0 0c113,-52 194,-145 234,-253 40,-108 38,-232 -14,-344l1 -1 -1 0 0 1c-52,-113 -145,-194 -253,-234 -108,-40 -231,-38 -344,14zm169 -2905c-468,-145 -988,-124 -1467,97 -473,219 -824,594 -1018,1036 -167,380 -220,809 -136,1229 9,-13 19,-26 30,-39 73,-89 183,-172 316,-234 111,-51 223,-80 323,-87 38,-3 75,-3 110,1 -10,-80 21,-168 83,-252 73,-97 191,-191 336,-258 146,-67 296,-97 419,-89 58,3 112,15 157,35 13,-47 37,-95 71,-141 71,-97 187,-190 333,-257l0 0c146,-67 293,-96 415,-88 104,6 191,40 246,100 19,-28 41,-54 66,-80 71,-74 167,-142 281,-194l0 0c145,-68 293,-96 414,-88 10,0 20,1 30,2 -262,-334 -617,-572 -1009,-693zm258 1113l0 0 0 0zm-121 56l0 0 0 0z"/>
  </g>
 </g>
</svg>
